<svg id="plasticsoup2" xmlns="http://www.w3.org/2000/svg" viewBox="0 0 6062.05 1511.76"><title>island copy</title><path d="M515,2325c0,41.42-65.54,48.5-128.5,48.5S267,2373.37,269,2332c4-81,72-82,133-107C460.26,2201.12,515,2283.58,515,2325Z" transform="translate(-144.95 -2219.74)" style="fill:#ed1c24;stroke:#4d4d4d;stroke-miterlimit:10;stroke-width:2px"/><path d="M1737,3530c0,41.42-65.54,48.5-128.5,48.5S1489,3578.37,1491,3537c4-81,72-82,133-107C1682.26,3406.12,1737,3488.58,1737,3530Z" transform="translate(-144.95 -2219.74)" style="fill:#ed1c24;stroke:#4d4d4d;stroke-miterlimit:10;stroke-width:2px"/><path d="M4201,3606c0,41.42-65.54,48.5-128.5,48.5S3953,3654.37,3955,3613c4-81,72-82,133-107C4146.26,3482.12,4201,3564.58,4201,3606Z" transform="translate(-144.95 -2219.74)" style="fill:#ed1c24;stroke:#4d4d4d;stroke-miterlimit:10;stroke-width:2px"/><path d="M5688,2652c0,41.42-65.54,48.5-128.5,48.5S5440,2700.37,5442,2659c4-81,72-82,133-107C5633.26,2528.12,5688,2610.58,5688,2652Z" transform="translate(-144.95 -2219.74)" style="fill:#ed1c24;stroke:#4d4d4d;stroke-miterlimit:10;stroke-width:2px"/><path d="M6206,3454c0,41.42-65.54,48.5-128.5,48.5S5958,3502.37,5960,3461c4-81,72-82,133-107C6151.26,3330.12,6206,3412.58,6206,3454Z" transform="translate(-144.95 -2219.74)" style="fill:#ed1c24;stroke:#4d4d4d;stroke-miterlimit:10;stroke-width:2px"/><path d="M392,3682c0,41.42-65.54,48.5-128.5,48.5S144,3730.37,146,3689c4-81,72-82,133-107C337.26,3558.12,392,3640.58,392,3682Z" transform="translate(-144.95 -2219.74)" style="fill:#ed1c24;stroke:#4d4d4d;stroke-miterlimit:10;stroke-width:2px"/></svg>