<?xml version="1.0" encoding="utf-8"?>
<!-- Generator: Adobe Illustrator 22.1.0, SVG Export Plug-In . SVG Version: 6.00 Build 0)  -->
<svg version="1.1" xmlns="http://www.w3.org/2000/svg" xmlns:xlink="http://www.w3.org/1999/xlink" x="0px" y="0px"
	 viewBox="0 0 426.7 746.3" style="enable-background:new 0 0 426.7 746.3;" xml:space="preserve">
<style type="text/css">
	.st0{fill:#ECECEC;stroke:#000000;stroke-width:10;}
	.st1{fill:#CCCCCC;}
	.st2{fill:#FF0000;stroke:#000000;}
	.st3{fill:#FF0000;stroke:#000000;stroke-width:10;}
	.st4{fill:#B3B3B3;stroke:#000000;}
	.st5{fill:#D20000;}
	.st6{fill:#999999;}
	.st7{fill:none;stroke:#000000;stroke-width:10;}
	.st8{fill:#B3B3B3;stroke:#000000;stroke-width:8;stroke-linecap:round;}
	.st9{fill:#80E5FF;stroke:#000000;stroke-width:12.2927;stroke-linecap:round;}
	.st10{fill:#FF0000;stroke:#000000;stroke-width:10;stroke-linecap:round;}
	.st11{fill:#FFFFFF;}
	.st12{fill:none;stroke:#000000;stroke-width:12.2927;stroke-linecap:round;}
	.st13{display:none;}
</style>
<g id="rock" xmlns:svg="http://www.w3.org/2000/svg">
	<g id="rocket">
		<path id="path3217" class="st0" d="M217.3,649.8c21.8-17.9,189.3-167.9,61.5-454.1L152.2,196l-0.5,0
			c-126.5,286.8,41.7,436,63.6,453.8L217.3,649.8L217.3,649.8L217.3,649.8z"/>
		<path id="path3219" class="st1" d="M211.6,464.3c26.4-0.1,47.9-22.2,47.8-49.4c-0.1-27.2-21.6-49.2-48.1-49.1
			s-47.9,22.2-47.9,49.4C163.6,442.3,185.2,464.4,211.6,464.3L211.6,464.3z M211.6,458.5c-23.4,0.1-42.3-19.3-42.4-43.4
			s18.8-43.5,42.2-43.5c23.4-0.1,42.3,19.3,42.4,43.3S235,458.4,211.6,458.5L211.6,458.5z"/>
		<path id="path2419" class="st2" d="M301.7,532L271,590.2l-42.9,50.1l-12.2,9.6l-46-49.2l-36-59.5l-2.9-12.5l171.2,0.3"/>
		<path id="path2408" class="st3" d="M318.4,310.5c0,0,75.9,0.8,29.6-197.2c0,0-3.9,165.5-44.1,145.2"/>
		<path id="path2410" class="st3" d="M112.5,310.9c0,0-75.9,1.1-30.5-197.1c0,0,4.7,165.4,44.7,145"/>
		<path id="path2423" class="st4" d="M297.4,236.2l-18.7-40.4l-127.5,1l-15,39.8L297.4,236.2L297.4,236.2L297.4,236.2z"/>
		<path id="path3209" class="st5" d="M94.8,291.1l14.2-36.8l8.6,7.3l10-4.4l-13.5,55.2L89.8,300c0,0-42.3-30.1-9.7-180.2
			C61.1,275,95.6,291.1,94.8,291.1L94.8,291.1z"/>
		<path id="path3213" class="st5" d="M350.2,115.4c0,0,7.5,160.5-41.2,161.2c-5.4,0.1-5.1-17.6-5.1-17.6l19.3-4.5l14.9-48.6
			L350.2,115.4C350.2,115.4,350.2,115.4,350.2,115.4z"/>
		<path id="path3232" class="st6" d="M183,236.5c-2.9-8.9-4.6-21.3-3.8-39c-0.6-0.2-1.3-0.5-1.9-0.9l-26,0.2l-12,32
			c0.5,2.7,1.1,5.2,1.6,7.7L183,236.5L183,236.5L183,236.5z"/>
		<path id="path3227" class="st1" d="M201.6,314.1c4.8,0.4,7.9-0.4,7.9-0.4L213,257c0,0-17.2,3.5-25.4-20.6l-42.3,0.1
			C159.1,302.3,187.7,313.1,201.6,314.1L201.6,314.1L201.6,314.1z"/>
		<path id="path3241" class="st1" d="M295.4,232.9l-14.3-36.4l-19.9-1.4l5.8,41.5L295.4,232.9z"/>
		<path id="path2382" class="st7" d="M217.3,649.8c21.8-17.9,189.3-167.9,61.5-454.1L152.2,196l-0.5,0
			c-126.5,286.8,41.7,436,63.6,453.8L217.3,649.8L217.3,649.8L217.3,649.8z"/>
		<path id="path2394" class="st7" d="M301.7,530.5l-168.3,0.4"/>
		<path id="path2400" class="st8" d="M170.7,419.5c-0.1-25.6,20.1-46.4,45-46.5s45.2,20.6,45.2,46.2c0,0,0,0,0,0
			c0.1,25.6-20.1,46.4-45,46.5C191,465.8,170.7,445.1,170.7,419.5C170.7,419.5,170.7,419.5,170.7,419.5z"/>
		<path id="path2402" class="st9" d="M186.4,419.5c0-16.7,13.1-30.2,29.3-30.2s29.4,13.4,29.4,30.1l0,0c0,16.7-13.1,30.2-29.3,30.2
			C199.6,449.6,186.5,436.1,186.4,419.5z"/>
		<path id="path2417" class="st7" d="M295.3,235.5l-159,0.4"/>
		<path id="rect2414" class="st10" d="M222,312.2l-12.9,0l-0.4-198.7l12.9,0L222,312.2L222,312.2z"/>
		<path id="path2425" class="st1" d="M143.5,245.4c0,0-57,135.5-10.9,265.6c-2.7-231,58.9-265.7,58.9-265.7L143.5,245.4L143.5,245.4
			z"/>
		<polygon id="rect2429" class="st11" points="203.4,450.5 186.2,432.7 227.9,389.3 245.1,407.1 		"/>
		<path id="path2431" class="st12" d="M186.4,419.5c0-16.7,13.1-30.2,29.3-30.2s29.4,13.4,29.4,30.1l0,0c0,16.7-13.1,30.2-29.3,30.2
			C199.6,449.6,186.5,436.1,186.4,419.5z"/>
		<path id="path2437" class="st5" d="M150.6,541.9c0,0,22.3,59.5,64.7,91.1c-38.9-76.4-18.8-91.2-18.8-91.2L150.6,541.9L150.6,541.9
			z"/>
		<path id="path3211" class="st7" d="M112.5,310.9c0,0-75.9,1.1-30.5-197.1c0,0,4.7,165.4,44.7,145"/>
		<path id="path3215" class="st7" d="M318.4,310.5c0,0,75.9,0.8,29.6-197.2c0,0-3.9,165.5-44.1,145.2"/>
		<path id="path3237" class="st11" d="M291.7,543.8c0,0-37.8,75.9-69.3,95.8C190.9,659.5,291,542.3,291.7,543.8z"/>
		<path id="path3239" class="st11" d="M313.6,342.3c2.2,1.3,16.4,106.3-17.8,171.7c-21.1,17.6-50,8.4-48.6,1.2
			C258.8,452.3,300.2,334.8,313.6,342.3z"/>
	</g>
	<title>Layer 1</title>
	<title>rocket</title>
</g>
<g id="Layer_2" class="st13">
</g>
</svg>
